<svg height="511pt" viewBox="-57 0 511 511.998" width="511pt" xmlns="http://www.w3.org/2000/svg"><path d="m398.238281 386.917969c0-23.707031-14.265625-44.789063-35.28125-54.058594v-124.160156c0-35-11.09375-67.765625-32.082031-94.753907-17.867188-22.972656-42.042969-40.789062-70.363281-51.960937v-.839844c0-33.714843-27.429688-61.144531-61.144531-61.144531-33.714844 0-61.144532 27.429688-61.144532 61.144531v.839844c-28.320312 11.171875-52.496094 28.988281-70.359375 51.960937-20.992187 26.988282-32.085937 59.753907-32.085937 94.753907v124.15625c-21.011719 9.269531-35.277344 30.355469-35.277344 54.0625v51.855469h125.332031c.171875 40.40625 33.089844 73.222656 73.535157 73.222656 40.445312 0 73.363281-32.816406 73.535156-73.222656h125.332031v-51.855469zm-198.871093 95.0625c-23.894532 0-43.351563-19.351563-43.523438-43.203125h87.046875c-.171875 23.851562-19.628906 43.203125-43.523437 43.203125zm168.851562-73.222657h-337.699219v-21.839843c0-13.769531 9.773438-25.734375 23.238281-28.453125l12.039063-2.429688v-147.335937c0-56.652344 35.289063-103.363281 92.09375-121.902344l10.351563-3.378906v-22.273438c0-17.164062 13.964843-31.125 31.125-31.125 17.160156 0 31.125 13.960938 31.125 31.125v22.273438l10.351562 3.378906c56.804688 18.539063 92.09375 65.25 92.09375 121.902344v147.335937l12.039062 2.429688c13.464844 2.71875 23.242188 14.683594 23.242188 28.453125zm0 0"/></svg>