<svg id="Capa_1" enable-background="new 0 0 511.389 511.389" height="512" viewBox="0 0 511.389 511.389" width="512" xmlns="http://www.w3.org/2000/svg"><g><path d="m446.034 0h-167.99l-278.044 278.044 233.345 233.345 278.044-278.044v-167.99zm35.355 220.918-248.044 248.044-190.918-190.918 248.043-248.044h143.138l47.781 47.782z"/><path d="m147.425 284.964h128v30h-128z" transform="matrix(.707 -.707 .707 .707 -150.182 237.358)"/><path d="m365.575 79.347c-8.878 8.877-13.767 20.68-13.767 33.234s4.89 24.357 13.767 33.234c9.162 9.163 21.198 13.744 33.233 13.744 12.036 0 24.072-4.582 33.234-13.744 8.877-8.877 13.767-20.68 13.767-33.234s-4.89-24.357-13.767-33.234c-18.326-18.326-48.143-18.324-66.467 0zm45.255 45.254c-6.63 6.629-17.414 6.628-24.042 0-3.211-3.21-4.979-7.479-4.979-12.021 0-4.541 1.769-8.81 4.979-12.021 3.314-3.314 7.667-4.971 12.021-4.971 4.353 0 8.707 1.657 12.021 4.971 3.211 3.211 4.979 7.48 4.979 12.021 0 4.542-1.768 8.811-4.979 12.021z"/><path d="m93.283 214.254h208v30h-208z" transform="matrix(.707 -.707 .707 .707 -104.324 206.647)"/><path d="m183.994 313.249h168v30h-168z" transform="matrix(.707 -.707 .707 .707 -153.613 285.642)"/></g></svg>