<svg id="Capa_1" enable-background="new 0 0 512 512" height="512" viewBox="0 0 512 512" width="512" xmlns="http://www.w3.org/2000/svg"><g><path d="m421.349 220.006v-220.006h-408.1v443.686c0 37.668 30.646 68.314 68.314 68.314h363.48c29.615 0 53.708-24.093 53.708-53.708v-238.286zm-339.786 261.979c-21.118 0-38.299-17.181-38.299-38.298v-413.672h348.069v428.276c0 8.499 1.984 16.542 5.514 23.693h-315.284zm387.173-23.693c0 13.064-10.63 23.693-23.694 23.693s-23.693-10.628-23.693-23.693v-208.271h47.387z"/><path d="m243.015 356.979h102.319v30.015h-102.319z"/><path d="m243.015 417.918h102.319v30.015h-102.319z"/><path d="m94.365 356.979h102.319v30.015h-102.319z"/><path d="m243.015 296.944h102.319v30.015h-102.319z"/><path d="m94.365 296.944h102.319v30.015h-102.319z"/><path d="m94.365 417.918h102.319v30.015h-102.319z"/><path d="m299.103 172.353 17.676 14.994 19.416-22.89-50.897-43.174v-53.536h-30.015v28.075l-31.688-26.88-112.599 95.514 19.416 22.89 17.403-14.763v57.427h-53.45v30.015h251.479v-30.015h-46.741zm-121.273-25.23 45.765-38.82 45.493 38.589v83.119h-31.392v-32.504h-30.016v32.504h-29.85z"/></g></svg>